<?xml version="1.0" standalone="no"?><!DOCTYPE svg PUBLIC "-//W3C//DTD SVG 1.1//EN" "http://www.w3.org/Graphics/SVG/1.1/DTD/svg11.dtd"><svg t="1583200474568" class="icon" viewBox="0 0 1024 1024" version="1.1" xmlns="http://www.w3.org/2000/svg" p-id="9165" xmlns:xlink="http://www.w3.org/1999/xlink" width="200" height="200"><defs><style type="text/css"></style></defs><path d="M42.367752 585.541786h233.418326v422.070026H42.367752z" fill="#FFFFFF" p-id="9166"></path><path d="M275.784017 1023.600188H42.367752c-9.593437 0-15.988375-6.394938-15.988375-15.988376v-422.070026c0-9.593437 6.394938-15.988375 15.988375-15.988375h233.418326c9.593437 0 15.988375 6.394938 15.988375 15.988375v422.070026c-0.002061 9.593437-7.996249 15.988375-15.990436 15.988376zM58.354066 991.625498h201.441576V601.530162H58.354066v390.095336z" fill="#193651" p-id="9167"></path><path d="M749.013547 585.541786h233.418326v422.070026H749.013547z" fill="#FFFFFF" p-id="9168"></path><path d="M982.431873 1023.600188H749.013547c-9.593437 0-15.988375-6.394938-15.988376-15.988376v-422.070026c0-9.593437 6.394938-15.988375 15.988376-15.988375h233.418326c9.593437 0 15.988375 6.394938 15.988375 15.988375v422.070026c0 9.593437-7.994188 15.988375-15.988375 15.988376zM765.001922 991.625498h201.441576V601.530162H765.001922v390.095336z" fill="#193651" p-id="9169"></path><path d="M1008.011625 1023.600188H16.785939c-9.593437 0-15.988375-6.394938-15.988375-15.988376s6.394938-15.988375 15.988375-15.988375h991.225686c9.593437 0 15.988375 6.394938 15.988375 15.988375s-6.394938 15.988375-15.988375 15.988376z" fill="#193651" p-id="9170"></path><path d="M894.499931 364.915397H130.297633L16.785939 585.541786h991.225686z" fill="#F16051" p-id="9171"></path><path d="M1008.011625 601.530162H16.785939c-4.795688 0-11.190626-3.198499-14.389125-7.994188s-3.198499-11.190626 0-15.988375l113.511694-220.628451c3.198499-4.795688 7.994188-7.994188 14.389125-7.994187H892.900681c6.394938 0 11.190626 3.198499 14.389125 7.994187l113.511695 220.628451c3.196439 4.795688 1.59925 11.190626 0 15.988375-1.59925 4.795688-7.994188 7.994188-12.789876 7.994188zM42.367752 569.555472h938.466932l-97.523319-188.6517H139.891071l-97.523319 188.6517z" fill="#193651" p-id="9172"></path><path d="M817.760675 467.234404L512.398782 235.415327 207.03895 467.234404z" fill="#E1E6E9" p-id="9173"></path><path d="M817.760675 483.222779H207.03895c-6.394938 0-12.789876-4.795688-14.389126-11.190626-1.59925-6.394938 0-14.389126 4.795688-17.585564l305.361894-231.819077c6.394938-4.795688 14.389126-4.795688 19.184813 0l305.361894 231.819077c4.795688 4.795688 7.994188 11.190626 4.795688 17.585564-1.59925 6.392877-7.994188 11.190626-14.389126 11.190626z m-562.760721-31.974689h516.396906L512.398782 256.199391l-257.398828 195.048699z" fill="#193651" p-id="9174"></path><path d="M397.289899 403.285025l115.108883-87.931943 115.110944 87.931943z" fill="#FFFFFF" p-id="9175"></path><path d="M275.784017 535.981533h473.22953v471.630279H275.784017z" fill="#FDBF5E" p-id="9176"></path><path d="M749.013547 1023.600188H275.784017c-9.593437 0-15.988375-6.394938-15.988375-15.988376V535.981533c0-9.593437 6.394938-15.988375 15.988375-15.988376h473.22953c9.593437 0 15.988375 6.394938 15.988375 15.988376v471.63234c0 9.591376-6.394938 15.986314-15.988375 15.986315z m-457.241154-31.97469h441.254839V551.967847H291.772393v439.657651z" fill="#193651" p-id="9177"></path><path d="M340.213584 598.764449h345.33077v391.694586H340.213584z" fill="#FFFFFF" p-id="9178"></path><path d="M245.408577 467.234404h533.982471v68.747129H245.408577z" fill="#FDBF5E" p-id="9179"></path><path d="M779.391048 551.967847H245.408577c-9.593437 0-15.988375-6.394938-15.988375-15.988375v-68.747129c0-9.593437 6.394938-15.988375 15.988375-15.988375h533.982471c9.593437 0 15.988375 6.394938 15.988375 15.988375v68.747129c-0.002061 7.996249-6.396999 15.988375-15.988375 15.988375z m-517.996156-31.97469h502.00778v-36.770378H261.394892v36.770378zM410.079775 643.096228h31.97469v31.97469h-31.97469zM496.412468 643.096228h31.974689v31.97469h-31.974689zM582.74516 643.096228h31.97469v31.97469h-31.97469z" fill="#193651" p-id="9180"></path><path d="M595.535036 991.625498v-137.492196c0-44.764566-36.770378-83.134193-83.134193-83.134194-44.764566 0-83.134193 36.770378-83.134193 83.134194v137.492196h166.268386z" fill="#E1E6E9" p-id="9181"></path><path d="M878.513616 807.769486h59.153691v59.153692h-59.153691zM793.780173 807.769486h59.153691v59.153692h-59.153691zM878.513616 724.633232h59.153691v59.153691h-59.153691zM793.780173 724.633232h59.153691v59.153691h-59.153691zM171.86576 807.769486h59.153692v59.153692H171.86576zM87.132318 807.769486h59.153691v59.153692H87.132318zM171.86576 724.633232h59.153692v59.153691H171.86576zM87.132318 724.633232h59.153691v59.153691H87.132318z" fill="#2EA2DB" p-id="9182"></path><path d="M512.398782 251.403703c-9.593437 0-15.988375-6.394938-15.988375-15.988376V16.388188c0-9.593437 6.394938-15.988375 15.988375-15.988376s15.988375 6.394938 15.988375 15.988376V235.415327c0 7.994188-6.394938 15.988375-15.988375 15.988376z" fill="#193651" p-id="9183"></path><path d="M697.854043 134.69557H512.398782V16.388188h185.455261l-47.963065 59.153691z" fill="#4FBF9F" p-id="9184"></path><path d="M697.854043 150.681885H512.398782c-9.593437 0-15.988375-6.394938-15.988375-15.988376V16.388188c0-9.593437 6.394938-15.988375 15.988375-15.988376h185.455261c6.394938 0 11.190626 3.198499 14.389126 9.593438 3.198499 4.795688 1.59925 12.789876-1.59925 17.585564L670.675042 75.541879l38.369627 46.363815c3.198499 3.198499 4.795688 7.994188 4.795689 12.789876 0.002061 7.992127-6.392877 15.986314-15.986315 15.986315zM528.387157 118.707195h135.892947l-27.179002-31.97469c-4.795688-6.394938-4.795688-14.389126 0-20.784063l27.179002-31.97469h-135.892947V118.707195z" fill="#193651" p-id="9185"></path></svg>