<?xml version="1.0" standalone="no"?><!DOCTYPE svg PUBLIC "-//W3C//DTD SVG 1.1//EN" "http://www.w3.org/Graphics/SVG/1.1/DTD/svg11.dtd"><svg t="1583200480447" class="icon" viewBox="0 0 1024 1024" version="1.1" xmlns="http://www.w3.org/2000/svg" p-id="9307" xmlns:xlink="http://www.w3.org/1999/xlink" width="200" height="200"><defs><style type="text/css"></style></defs><path d="M1007.99913 1024H16.00087c-9.600935 0-16.00087-6.399936-16.00087-16.00087s6.399936-16.00087 16.00087-16.00087h992.000322c9.600935 0 16.00087 6.399936 16.00087 16.00087s-8.002498 16.00087-16.002932 16.00087z" fill="#193651" p-id="9308"></path><path d="M62.400918 468.799919h238.400178v539.199211H62.400918z" fill="#2EA2DB" p-id="9309"></path><path d="M300.799033 1024H62.400918c-9.600935 0-16.00087-6.399936-16.00087-16.00087v-539.199211c0-9.600935 6.399936-16.00087 16.00087-16.00087h238.400178c9.600935 0 16.00087 6.399936 16.00087 16.00087v539.199211c-0.002062 9.600935-8.002498 16.00087-16.002933 16.00087zM78.399726 992.000322h206.4005V484.80079H78.399726V992.000322z" fill="#193651" p-id="9310"></path><path d="M300.799033 278.40029h422.399871v729.59884h-422.399871z" fill="#FFFFFF" p-id="9311"></path><path d="M723.198904 1024h-422.399871c-9.600935 0-16.00087-6.399936-16.00087-16.00087V278.40029c0-9.600935 6.399936-16.00087 16.00087-16.00087h422.399871c9.600935 0 16.00087 6.399936 16.00087 16.00087v729.59884c0 9.600935-6.399936 16.00087-16.00087 16.00087zM316.799903 992.000322h390.400194V294.40116H316.799903v697.599162z" fill="#193651" p-id="9312"></path><path d="M511.998969 299.200596l179.200258 169.599323h316.799903l-111.999903-251.200048H128.000773L16.00087 468.799919h316.799903z" fill="#F16051" p-id="9313"></path><path d="M1007.99913 484.80079h-316.799903c-4.799436 0-8.000435-1.6005-11.199372-4.799436l-168.000886-158.399952-168.000886 158.399952c-3.200999 3.200999-6.399936 4.799436-11.199372 4.799436H16.00087c-4.799436 0-11.199372-3.200999-12.799871-8.000436C0 471.998856 0 467.19942 1.6005 460.799484l111.999903-251.200048c3.200999-6.399936 8.000435-9.600935 14.40037-9.600935h768.000516c6.399936 0 12.799871 3.200999 14.400371 9.600935l110.399403 247.999049c1.6005 3.200999 3.198937 6.399936 3.198937 9.600935 0 11.201434-6.399936 17.60137-16.00087 17.60137zM697.599162 452.799049h286.400725L886.400354 233.600741H137.599646L40.000113 452.799049h286.400725l174.400822-164.799887c6.399936-6.399936 16.00087-6.399936 22.400805 0l174.396697 164.799887z" fill="#193651" p-id="9314"></path><path d="M513.599468 233.600741c-9.600935 0-16.00087-6.399936-16.00087-16.00087V16.00087c0-9.600935 6.399936-16.00087 16.00087-16.00087 9.600935 0 16.00087 6.399936 16.00087 16.00087v201.599001c0 9.600935-8.000435 16.00087-16.00087 16.00087z" fill="#193651" p-id="9315"></path><path d="M513.599468 16.00087h166.400387v103.999468h-166.400387z" fill="#E1E6E9" p-id="9316"></path><path d="M678.399355 135.999146h-164.799887c-9.600935 0-16.00087-6.399936-16.00087-16.00087V16.00087c0-9.600935 6.399936-16.00087 16.00087-16.00087h166.400387c9.600935 0 16.00087 6.399936 16.00087 16.00087v103.999468c-1.6005 8.000435-8.000435 15.998808-17.60137 15.998808z m-148.799017-31.999678h134.400709V31.999678h-134.400709v71.99979z" fill="#193651" p-id="9317"></path><path d="M723.198904 468.799919H961.599082v539.199211H723.198904z" fill="#2EA2DB" p-id="9318"></path><path d="M961.599082 1024H723.198904c-9.600935 0-16.00087-6.399936-16.00087-16.00087v-539.199211c0-9.600935 6.399936-16.00087 16.00087-16.00087H961.599082c9.600935 0 16.00087 6.399936 16.00087 16.00087v539.199211c0 9.600935-6.399936 16.00087-16.00087 16.00087zM739.199774 992.000322h206.4005V484.80079H739.199774V992.000322z" fill="#193651" p-id="9319"></path><path d="M787.200322 529.600338H897.599726V633.599807h-110.399404zM787.200322 686.399791H897.599726v103.999468h-110.399404zM787.200322 843.199243H897.599726v103.999468h-110.399404zM510.400532 775.998888c-44.799549 0-81.600725 33.600177-81.600725 76.799227v140.800644h163.199387v-140.800644c0-41.59855-36.799114-76.799227-81.598662-76.799227z" fill="#FFFFFF" p-id="9320"></path><path d="M591.999194 1009.599629h-163.199387c-9.600935 0-16.00087-6.399936-16.00087-16.00087v-140.800644c0-51.199484 43.199049-92.800097 97.599532-92.800097 54.400483 0 97.599533 41.600612 97.599533 92.800097v140.800644c0.002062 8.000435-7.998373 16.00087-15.998808 16.00087z m-147.198517-31.999677h131.19971v-124.799775c0-33.600177-28.800741-60.800419-65.599855-60.800419s-65.599855 27.200242-65.599855 60.800419v124.799775z" fill="#193651" p-id="9321"></path><path d="M126.400274 529.600338h110.399404V633.599807H126.400274zM126.400274 686.399791h110.399404v103.999468H126.400274zM126.400274 843.199243h110.399404v103.999468H126.400274z" fill="#FFFFFF" p-id="9322"></path><path d="M511.998969 502.400097m-68.800854 0a68.800854 68.800854 0 1 0 137.601708 0 68.800854 68.800854 0 1 0-137.601708 0Z" fill="#FFFFFF" p-id="9323"></path><path d="M511.998969 587.199758c-46.400048 0-84.799662-38.399613-84.799662-84.799661s38.399613-84.799662 84.799662-84.799662 84.799662 38.399613 84.799661 84.799662-38.399613 84.799662-84.799661 84.799661z m0-137.599645c-28.800741 0-52.799984 23.999243-52.799984 52.799984 0 28.800741 23.999243 52.799984 52.799984 52.799984 28.800741 0 52.799984-23.999243 52.799984-52.799984 0-30.401241-23.999243-52.799984-52.799984-52.799984z" fill="#193651" p-id="9324"></path><path d="M409.6 676.798856h31.999678v31.999678h-31.999678zM496.000161 676.798856H527.999839v31.999678h-31.999678zM582.400322 676.798856h31.999678v31.999678h-31.999678z" fill="#193651" p-id="9325"></path></svg>