<?xml version="1.0" standalone="no"?><!DOCTYPE svg PUBLIC "-//W3C//DTD SVG 1.1//EN" "http://www.w3.org/Graphics/SVG/1.1/DTD/svg11.dtd"><svg t="1583204002208" class="icon" viewBox="0 0 1160 1024" version="1.1" xmlns="http://www.w3.org/2000/svg" p-id="38779" xmlns:xlink="http://www.w3.org/1999/xlink" width="226.5625" height="200"><defs><style type="text/css"></style></defs><path d="M34.133333 34.133333h750.933334v136.533334H34.133333zM512 853.333333v-34.133333H307.2v34.133333H102.4v136.533334h614.4v-136.533334h-204.8z" fill="#FFC824" p-id="38780"></path><path d="M989.866667 614.4m-136.533334 0a136.533333 136.533333 0 1 0 273.066667 0 136.533333 136.533333 0 1 0-273.066667 0Z" fill="#FFC824" p-id="38781"></path><path d="M1126.4 955.733333h-102.4v-174.08a170.666667 170.666667 0 1 0-68.266667 0V955.733333h-204.8V204.8h34.133334a34.133333 34.133333 0 0 0 34.133333-34.133333V34.133333a34.133333 34.133333 0 0 0-34.133333-34.133333H34.133333a34.133333 34.133333 0 0 0-34.133333 34.133333v136.533334a34.133333 34.133333 0 0 0 34.133333 34.133333h34.133334v34.133333a34.133333 34.133333 0 0 0 68.266666 0V204.8h546.133334v750.933333h-136.533334v-204.8a34.133333 34.133333 0 0 0-34.133333-34.133333H307.2a34.133333 34.133333 0 0 0-34.133333 34.133333v204.8H136.533333V409.6a34.133333 34.133333 0 0 0-68.266666 0v546.133333H34.133333a34.133333 34.133333 0 0 0 0 68.266667h1092.266667a34.133333 34.133333 0 0 0 0-68.266667z m-238.933333-341.333333a102.4 102.4 0 1 1 102.4 102.4 102.4 102.4 0 0 1-102.4-102.4zM102.4 136.533333H68.266667V68.266667h682.666666v68.266666H102.4z m238.933333 819.2v-170.666666h136.533334v170.666666z" fill="#6B400D" p-id="38782"></path><path d="M256 375.466667h68.266667a34.133333 34.133333 0 0 0 0-68.266667h-68.266667a34.133333 34.133333 0 0 0 0 68.266667zM494.933333 375.466667h68.266667a34.133333 34.133333 0 0 0 0-68.266667h-68.266667a34.133333 34.133333 0 0 0 0 68.266667zM256 580.266667h68.266667a34.133333 34.133333 0 0 0 0-68.266667h-68.266667a34.133333 34.133333 0 0 0 0 68.266667zM494.933333 580.266667h68.266667a34.133333 34.133333 0 0 0 0-68.266667h-68.266667a34.133333 34.133333 0 0 0 0 68.266667z" fill="#6B400D" p-id="38783"></path></svg>