<?xml version="1.0" standalone="no"?><!DOCTYPE svg PUBLIC "-//W3C//DTD SVG 1.1//EN" "http://www.w3.org/Graphics/SVG/1.1/DTD/svg11.dtd"><svg t="1583200225470" class="icon" viewBox="0 0 1024 1024" version="1.1" xmlns="http://www.w3.org/2000/svg" p-id="1048" xmlns:xlink="http://www.w3.org/1999/xlink" width="200" height="200"><defs><style type="text/css"></style></defs><path d="M681.1 47l-0.6-0.6c-23.3-23-60.6-23.8-84.9-1.9-24.3-21.9-61.5-21.1-84.9 1.9-23.8 23.5-24.1 61.9-0.6 85.7l0.6 0.6 71.1 70.5c7.5 7.6 19.7 7.7 27.3 0.3l0.3-0.3 71.1-70.4c23.9-23.6 24.2-62 0.6-85.8z m-23.2 50c-1.8 0-3.2-1.4-3.2-3.2 0-11.5-9.4-20.9-20.9-20.9-0.9 0-1.7-0.4-2.3-1-0.6-0.6-1-1.4-1-2.3 0-1.8 1.4-3.2 3.2-3.2 15.1 0 27.4 12.2 27.4 27.4 0 1.8-1.4 3.2-3.2 3.2zM829.8 315.1l-0.3-0.3c-13-12.8-33.8-13.3-47.4-1-13.6-12.3-34.4-11.8-47.4 1-13.3 13.1-13.5 34.6-0.3 47.9l0.3 0.3 39.7 39.3c4.2 4.3 11 4.3 15.2 0.1l0.1-0.1 39.7-39.3c13.4-13.1 13.6-34.6 0.4-47.9z m-12.9 28c-1 0-1.8-0.8-1.8-1.8 0-6.4-5.2-11.7-11.7-11.7-0.5 0-0.9-0.2-1.3-0.5-0.3-0.3-0.5-0.8-0.5-1.3 0-1 0.8-1.8 1.8-1.8 8.4 0 15.3 6.8 15.3 15.3-0.1 1-0.9 1.8-1.8 1.8z" fill="#9ACAE8" p-id="1049"></path><path d="M642.6 437.2H839c13.7 0 24.9 11.2 24.9 24.9v504.2c0 13.7-11.2 24.9-24.9 24.9H623.5c-1 0-1.9-0.1-2.9-0.2" fill="#87BDD8" p-id="1050"></path><path d="M839 993.5H623.5c-1 0-2-0.1-3.2-0.2l0.5-4.7c0.9 0.1 1.8 0.2 2.6 0.2H839c12.4 0 22.5-10.1 22.5-22.5V462.1c0-12.4-10.1-22.5-22.5-22.5H642.6v-4.7H839c15 0 27.2 12.2 27.2 27.2v504.2c0 15-12.2 27.2-27.2 27.2z" fill="#EFE925" p-id="1051"></path><path d="M818.7 535.9H717c-6.6 0-12-5.4-12-12v-30.2c0-6.6 5.4-12 12-12h101.7c6.6 0 12 5.4 12 12v30.2c0 6.6-5.4 12-12 12zM818.7 632.4H717c-6.6 0-12-5.4-12-12v-30.2c0-6.6 5.4-12 12-12h101.7c6.6 0 12 5.4 12 12v30.2c0 6.6-5.4 12-12 12zM818.7 728.9H717c-6.6 0-12-5.4-12-12v-30.2c0-6.6 5.4-12 12-12h101.7c6.6 0 12 5.4 12 12v30.2c0 6.6-5.4 12-12 12z" fill="#EFE925" p-id="1052"></path><path d="M630.6 991.1h-432c-6.6 0-12-5.4-12-12V250.7c0-6.6 5.4-12 12-12h432c6.6 0 12 5.4 12 12v728.4c0 6.6-5.4 12-12 12z" fill="#9ACAE8" p-id="1053"></path><path d="M628.6 993.5h-428c-9 0-16.4-7.3-16.4-16.4V252.7c0-9 7.3-16.4 16.4-16.4h427.9c9 0 16.4 7.3 16.4 16.4v724.4c0 9-7.3 16.4-16.3 16.4zM200.6 241c-6.5 0-11.7 5.2-11.7 11.7v724.4c0 6.5 5.2 11.7 11.7 11.7h427.9c6.5 0 11.7-5.2 11.7-11.7V252.7c0-6.5-5.2-11.7-11.7-11.7H200.6z" fill="#EFE925" p-id="1054"></path><path d="M565 355.2H264.2c-6.6 0-12-5.4-12-12v-49.6c0-6.6 5.4-12 12-12H565c6.6 0 12 5.4 12 12v49.6c0 6.6-5.4 12-12 12zM565 486.3H264.2c-6.6 0-12-5.4-12-12v-49.6c0-6.6 5.4-12 12-12H565c6.6 0 12 5.4 12 12v49.6c0 6.6-5.4 12-12 12zM565 617.4H264.2c-6.6 0-12-5.4-12-12v-49.6c0-6.6 5.4-12 12-12H565c6.6 0 12 5.4 12 12v49.6c0 6.6-5.4 12-12 12z" fill="#EFE925" p-id="1055"></path><path d="M894.9 993.1h-765c-6.6 0-12-5.4-12-12v-16.6c0-6.6 5.4-12 12-12h765c6.6 0 12 5.4 12 12v16.6c0 6.6-5.4 12-12 12z" fill="#9ACAE8" p-id="1056"></path><path d="M892.9 995.4H132c-9 0-16.4-7.3-16.4-16.4v-12.5c0-9 7.3-16.4 16.4-16.4h760.9c9 0 16.4 7.3 16.4 16.4V979c-0.1 9.1-7.4 16.4-16.4 16.4zM132 954.8c-6.5 0-11.7 5.2-11.7 11.7V979c0 6.5 5.2 11.7 11.7 11.7h760.9c6.5 0 11.7-5.2 11.7-11.7v-12.5c0-6.5-5.2-11.7-11.7-11.7H132z" fill="#EFE925" p-id="1057"></path><path d="M559.2 296.8m-10.3 0a10.3 10.3 0 1 0 20.6 0 10.3 10.3 0 1 0-20.6 0Z" fill="#FFFFFF" p-id="1058"></path><path d="M561.8 428.4m-10.3 0a10.3 10.3 0 1 0 20.6 0 10.3 10.3 0 1 0-20.6 0Z" fill="#FFFFFF" p-id="1059"></path><path d="M559.2 560m-10.3 0a10.3 10.3 0 1 0 20.6 0 10.3 10.3 0 1 0-20.6 0Z" fill="#FFFFFF" p-id="1060"></path><path d="M820.1 497.9m-6.6 0a6.6 6.6 0 1 0 13.2 0 6.6 6.6 0 1 0-13.2 0Z" fill="#FFFFFF" p-id="1061"></path><path d="M820.1 590.9m-6.6 0a6.6 6.6 0 1 0 13.2 0 6.6 6.6 0 1 0-13.2 0Z" fill="#FFFFFF" p-id="1062"></path><path d="M820.1 689.1m-6.6 0a6.6 6.6 0 1 0 13.2 0 6.6 6.6 0 1 0-13.2 0Z" fill="#FFFFFF" p-id="1063"></path></svg>